<svg width="19" height="19" viewBox="0 0 19 19" fill="none" xmlns="http://www.w3.org/2000/svg">
<path d="M11.375 7.375H9.625V4.75H7V3H9.625V0.375H11.375V3H14V4.75H11.375V7.375Z" fill="white"/>
<path d="M4.38375 17C4.38375 16.0331 5.15812 15.25 6.125 15.25C7.09187 15.25 7.875 16.0331 7.875 17C7.875 17.9669 7.09187 18.75 6.125 18.75C5.15812 18.75 4.38375 17.9669 4.38375 17Z" fill="white"/>
<path d="M13.1337 17C13.1337 16.0331 13.9081 15.25 14.875 15.25C15.8419 15.25 16.625 16.0331 16.625 17C16.625 17.9669 15.8419 18.75 14.875 18.75C13.9081 18.75 13.1337 17.9669 13.1337 17Z" fill="white"/>
<path d="M6.30437 12.3013C6.28687 12.3319 6.27813 12.3669 6.27813 12.4063C6.27813 12.5288 6.37438 12.625 6.49688 12.625H16.625V14.375H6.125C5.15812 14.375 4.375 13.5919 4.375 12.625C4.375 12.3188 4.45375 12.0344 4.58937 11.7806L5.775 9.63688L2.625 3H0.875V1.25H3.73187L4.55875 3L5.39 4.75L7.35437 8.88875L7.46812 9.125H13.6062L16.0169 4.75L16.9837 3H16.9881L18.5194 3.84L15.1419 9.97375C14.84 10.5119 14.2669 10.875 13.6106 10.875H7.09187L6.30437 12.3013Z" fill="white"/>
</svg>