<svg width="24" height="24" viewBox="0 0 24 24" fill="none" xmlns="http://www.w3.org/2000/svg">
<path d="M1.49967 23.2503C1.39384 23.251 1.28906 23.2292 1.19224 23.1865C1.09542 23.1437 1.00874 23.081 0.937896 23.0023C0.867056 22.9237 0.81366 22.831 0.781219 22.7302C0.748778 22.6295 0.738026 22.523 0.74967 22.4178L1.42467 16.2903C1.44359 16.1199 1.52035 15.961 1.64217 15.8403L15.9522 1.53782C16.2003 1.28815 16.4954 1.09001 16.8204 0.95481C17.1454 0.819605 17.4939 0.75 17.8459 0.75C18.1979 0.75 18.5465 0.819605 18.8715 0.95481C19.1965 1.09001 19.4915 1.28815 19.7397 1.53782L22.4997 4.26032C22.7493 4.50846 22.9475 4.80352 23.0827 5.12853C23.2179 5.45353 23.2875 5.80206 23.2875 6.15407C23.2875 6.50607 23.2179 6.85461 23.0827 7.17961C22.9475 7.50461 22.7493 7.79967 22.4997 8.04782L8.15967 22.3503C8.03895 22.4721 7.88013 22.5489 7.70967 22.5678L1.58217 23.2503H1.49967ZM2.89467 16.7103L2.34717 21.6528L7.28967 21.1053L21.4047 6.98282C21.6236 6.76104 21.7464 6.46195 21.7464 6.15032C21.7464 5.83868 21.6236 5.53959 21.4047 5.31782L18.6822 2.59532C18.4604 2.37638 18.1613 2.25363 17.8497 2.25363C17.538 2.25363 17.2389 2.37638 17.0172 2.59532L2.89467 16.7103Z" fill="#101820"/>
<path d="M19.8895 10.3049C19.6927 10.304 19.5042 10.2259 19.3645 10.0874L13.912 4.63485C13.7717 4.49064 13.6945 4.29663 13.6973 4.0955C13.7002 3.89436 13.7827 3.70259 13.927 3.56235C14.0712 3.42212 14.2652 3.34492 14.4663 3.34773C14.6675 3.35054 14.8592 3.43314 14.9995 3.57735L20.422 8.99985C20.5616 9.14038 20.6401 9.33046 20.6401 9.5286C20.6401 9.72674 20.5616 9.91683 20.422 10.0574C20.3544 10.1323 20.2724 10.1929 20.1809 10.2354C20.0894 10.2779 19.9903 10.3015 19.8895 10.3049Z" fill="#101820"/>
</svg>
